<svg xmlns="http://www.w3.org/2000/svg" viewBox="0 0 463.74 41.42"><defs><style>.a{fill:#000;}</style></defs><path class="a" d="M30,28.93c-.19-5.4.07-8.45.29-13.84.17-3.94.48-6.34.58-10.09,0-1.16,0-2.28-1.06-3a3.29,3.29,0,0,0-2-.48c-1.64.09-2.7.09-3.95.09a1.56,1.56,0,0,0-1.54,1c-.28.69.35,1.11.57,1.82a31.65,31.65,0,0,1,1.45,4.81c.26,1.55.67,2.69.29,4-.2,1-1.54,1.44-2.6,1.44-2.8.1-5.11.1-7.61.1-1.35,0-1.35-1.15-1.64-2.12a8.4,8.4,0,0,1-.1-3.93c.28-1.84,1.49-2.59,1.74-4.42.12-.9.67-1.62.09-2.31a1.89,1.89,0,0,0-1.54-.48c-2.12.09-3.37,0-5.39,0a1.68,1.68,0,0,0-2,.86c-.39.7.2,1.35.29,2C6.26,6.82,7,8.24,7.13,10.76c.16,3.31-.48,5.29-1.44,8.36-1.16,3.37-2.51,5.67-3.76,8.65C.77,30.37-.06,32.07,0,35c.05,2,.1,3.46,1.16,5.09a2.47,2.47,0,0,0,2.21,1.25H9.83c1.06,0,1.44-.77,1.15-2.11s-1-2.44-1.54-4c-.78-2.4-1.65-3.83-1.35-6.34.2-1.65.25-2.8,1.35-4,.82-.9,1.45-1.63,2.6-1.73,2.61-.28,4.92.1,7.9-.19A3.75,3.75,0,0,1,23,24.41c1.23,1.44.67,2.91.67,4.8,0,2.42-.67,3.72-1.25,6.06-.39,1.55-1.06,2.4-1.16,3.94-.09,1.06.19,2.11,1,2.11,2.11.1,4.33.1,6.83,0,.78,0,2.12-.38,2.12-1.25a21.29,21.29,0,0,0-.67-3.17A50.54,50.54,0,0,1,30,28.93Z"/><path class="a" d="M44.12,6.44a3.65,3.65,0,0,1,2.8-.67,4,4,0,0,1,2,.67l6.45,2.5a1.91,1.91,0,0,0,1.83.38,1.87,1.87,0,0,0,1.35-1.25l.29-5.38c-.17-.37-.29-.77-.58-.86a3.67,3.67,0,0,0-1.92-.29h-17a2.6,2.6,0,0,0-2.12,1,2.54,2.54,0,0,0-.67,2.11L35.74,36.9a5,5,0,0,0,1.16,3.65c.58.77,1.92.77,3.18.87l16.28-.19a2.36,2.36,0,0,0,1.44-.77,2.28,2.28,0,0,0,.77-1.25l.29-5.57a1.63,1.63,0,0,0-.77-1,1.65,1.65,0,0,0-1.64,0l-5.58,2.41a6.19,6.19,0,0,1-3.47.48,5.42,5.42,0,0,1-3-1.06c-1.64-1.2-2-2.77-2-4.81A6.43,6.43,0,0,1,43.93,25a7.08,7.08,0,0,1,3.56-2.6l5-.09a1.75,1.75,0,0,0,1.26-1.64l.28-5a1.14,1.14,0,0,0-.28-.77,1.18,1.18,0,0,0-.77-.29H46.72a4,4,0,0,1-2.79-1.35,4.15,4.15,0,0,1-1.25-3.65A3.76,3.76,0,0,1,44.12,6.44Z"/><path class="a" d="M82.56,32.1a1.48,1.48,0,0,0-1.54.29L75.91,34.5c-1.64.48-2.41.77-3.76.19a3.33,3.33,0,0,1-1.92-2.4c-.68-2.6-.29-4.23.19-6.82s3-9.87,4.91-16.15c.71-2.25,1-3.55,1.83-5.76A3,3,0,0,0,77.36,2a1,1,0,0,0-1.06-.67l-8.19-.1a2.3,2.3,0,0,0-1.74.86c-.48.49-.77.49-.86,1.54C65.13,12.39,65,17.32,64.45,26c-.33,5.1-.54,8-1,13.07A1.46,1.46,0,0,0,64,40.75a3.78,3.78,0,0,0,1.54.48H80.82a2.59,2.59,0,0,0,1.93-1A2.84,2.84,0,0,0,83.43,39a12.87,12.87,0,0,0,.28-2.69,14.32,14.32,0,0,0-.28-3.46A1.47,1.47,0,0,0,82.56,32.1Z"/><path class="a" d="M104.52,17.49a23.53,23.53,0,0,0-4.43-3c-1.86-1.14-3.24-1.29-4.91-2.69-.9-.75-1.63-1.06-2.12-2.11a2.91,2.91,0,0,1-.19-2.31,2.72,2.72,0,0,1,1.34-1.83,4.15,4.15,0,0,1,2.32-.38,10.36,10.36,0,0,1,3.85.86A25,25,0,0,1,104,7.69c.7.34,1.11.47,1.83.77a1.53,1.53,0,0,0,1.25-.29A2.08,2.08,0,0,0,107.89,7l.29-4.33a1.44,1.44,0,0,0-.48-1,1.57,1.57,0,0,0-1.25-.48H97a9,9,0,0,0-4.82,1.44,10,10,0,0,0-4.72,6.06,9.81,9.81,0,0,0-.67,5,10,10,0,0,0,1.83,4.81c1.67,2.64,3.64,3.34,6.36,4.9,1.62.94,2.73,1.12,4.33,2.11,1.28.8,2.33,1,3.18,2.21a4.53,4.53,0,0,1,1,2.89,4.31,4.31,0,0,1-1.54,3.46c-1.11,1-2.24,1-3.76,1.05a10.7,10.7,0,0,1-4.33-.86c-1.67-.55-2.45-1.27-4.14-1.73a19.64,19.64,0,0,0-2.12-.48,1.66,1.66,0,0,0-1.35.38,1.38,1.38,0,0,0-.58,1.06l-.19,5.38a1.63,1.63,0,0,0,.38,1.25,2.07,2.07,0,0,0,1.16.77,51.43,51.43,0,0,0,7.13.19,19.07,19.07,0,0,0,5-.38,11.15,11.15,0,0,0,5.49-3,12.34,12.34,0,0,0,3.27-5,12.06,12.06,0,0,0,1.16-5.09,12,12,0,0,0-.77-5.1A12.31,12.31,0,0,0,104.52,17.49Z"/><path class="a" d="M122.34,1h-6.07a2.59,2.59,0,0,0-1.63.58,1.6,1.6,0,0,0-.58,1.34c.61,3.92.84,6.14,1.15,10.09.2,2.51.29,3.93.29,6.44a63.78,63.78,0,0,1-1.44,13.84c-.3,1.58-.49,2.47-.87,4-.18.75-.28,1.17-.48,1.92a1.44,1.44,0,0,0,1.35,1.73h5a1.86,1.86,0,0,0,1.73-.67,1.51,1.51,0,0,0,.48-1.25c-.28-1.68-.39-2.64-.57-4.33a41.94,41.94,0,0,1-.29-6.63,69.25,69.25,0,0,1,.86-8.36c.41-3.2.72-5,1.26-8.17s.69-5.06,1.34-8.26a2,2,0,0,0-.38-1.64A1.74,1.74,0,0,0,122.34,1Z"/><path class="a" d="M154,1a2,2,0,0,0-1.16-.29h-4.43c-.68.1-1.45.1-1.83.58s-.19,1,.09,1.54a30.23,30.23,0,0,1,1.84,6,31,31,0,0,1,.77,8c0,1.43,0,2.23-.1,3.65,0,.68,0,1.54-.67,1.54-.49,0-.68-.29-1-.77-1.58-3.68-2.43-5.77-3.85-9.51-1.26-3.31-2-5.19-3.08-8.55a4.27,4.27,0,0,0-1.06-1.64,3.1,3.1,0,0,0-.77-.48h-7.13a1.37,1.37,0,0,0-1.26,1,1.44,1.44,0,0,0,.1,1.64c1.54,3.17,1.25,3.55,1.25,6.92A25.73,25.73,0,0,1,130.72,18c-.79,3.06-1.92,4.61-3.08,7.5-1.25,3.17-2.21,5.09-2.5,8.74a10.22,10.22,0,0,0,.86,5,2.29,2.29,0,0,0,1.16,1.25,3,3,0,0,0,1.83.48h4.33a1.74,1.74,0,0,0,1.93-1.06,1.83,1.83,0,0,0-.09-1.73,23.24,23.24,0,0,1-1.26-4.8,31.67,31.67,0,0,1-.58-6.73,32.37,32.37,0,0,1,.29-5.48,36.85,36.85,0,0,1,.68-3.75c.19-1.05.29-2,1.15-2.11.58-.1,1.16,1,1.45,2.21,1.7,4.1,2.64,6.43,4.24,10.57s2.44,6.72,4.14,11a1.58,1.58,0,0,0,.77,1.25,2.25,2.25,0,0,0,1.16.48h5a1.3,1.3,0,0,0,.86-.48,1.48,1.48,0,0,0,.39-.87,45.76,45.76,0,0,1-.29-6.73c0-3.71.27-5.8.48-9.51.17-3.07.26-4.81.48-7.88.2-2.81.45-4.39.58-7.21a50.31,50.31,0,0,0,0-5.76A1.64,1.64,0,0,0,154,1Z"/><path class="a" d="M185.63.58,169.26.77a8.29,8.29,0,0,0-3.47,1.63,7.7,7.7,0,0,0-2.51,2.89c-1.25,3.17-1.62,6.16-2.12,10.18a63.19,63.19,0,0,0-.28,9.23,50.6,50.6,0,0,0,.28,8.26,40.51,40.51,0,0,0,.87,4.52,4,4,0,0,0,1.45,2.11,3.2,3.2,0,0,0,2.31.87H181.3a3.21,3.21,0,0,0,2.12-.87,4.74,4.74,0,0,0,1.35-2.11c.47-2.68.68-4.21,1-6.92.35-3.44.8-5.4.48-8.84-.12-1.27-.13-2-.29-3.27a3.4,3.4,0,0,0-.77-1.06,3.53,3.53,0,0,0-1.35-.57l-5.59.19a1.28,1.28,0,0,0-1.15.67,1.13,1.13,0,0,0,.1,1.16,20.25,20.25,0,0,1,1.92,5.76c.42,2.14,1.09,3.51.39,5.58a7.28,7.28,0,0,1-7.81,4.8c-1.56-.16-2.74-.25-3.75-1.44a4.83,4.83,0,0,1-1-3.46,25.43,25.43,0,0,1,.29-5.19,53.65,53.65,0,0,1,2-9.8,24.3,24.3,0,0,1,1.63-4.71c.77-1.52,1.11-2.55,2.41-3.65A5.8,5.8,0,0,1,177.25,5a8.4,8.4,0,0,1,3.66.86,16.82,16.82,0,0,1,3.57,1.73,1.25,1.25,0,0,0,1.54.29,1.26,1.26,0,0,0,.77-1l.38-4.9a1.42,1.42,0,0,0-.48-1A1.43,1.43,0,0,0,185.63.58Z"/><path class="a" d="M201.53.38h-6.07a2,2,0,0,0-1.54.68,1.7,1.7,0,0,0-.58,1.34,85.62,85.62,0,0,1,1.16,10.09c.15,2.47.16,3.87.19,6.35a54.89,54.89,0,0,1-1.45,13.93c-.32,1.53-.45,2.41-.77,3.94-.16.79-.28,1.23-.48,2a1.15,1.15,0,0,0,.1,1.06,1.16,1.16,0,0,0,1.15.67h5.11a1.66,1.66,0,0,0,1.73-.67,2,2,0,0,0,.39-1.35c-.22-1.68-.32-2.63-.48-4.32a47.46,47.46,0,0,1-.29-6.63,65.68,65.68,0,0,1,.86-8.27c.41-3.2.72-5,1.26-8.17s.81-5.1,1.34-8.36a2.06,2.06,0,0,0-.48-1.54A2,2,0,0,0,201.53.38Z"/><path class="a" d="M233.41.58a1.84,1.84,0,0,0-1.15-.29h-4.43c-.68.09-1.45.09-1.83.48s-.2,1.06.09,1.63a38.75,38.75,0,0,1,1.83,5.87,29.6,29.6,0,0,1,.87,8.07A31.88,31.88,0,0,1,228.6,20c0,.67,0,1.54-.68,1.54-.5,0-.67-.29-1-.87-1.53-3.7-2.38-5.79-3.85-9.51-1.3-3.27-2-5.13-3.09-8.46A2.7,2.7,0,0,0,219,1.06a2.69,2.69,0,0,0-.77-.48h-7a1.46,1.46,0,0,0-1.35,1A1.53,1.53,0,0,0,210,3.17c1.45,3.08,1.16,3.56,1.16,6.83a24.63,24.63,0,0,1-1.06,7.49c-.83,3.09-1.83,4.61-3.08,7.59-1.25,3.17-2.22,5.1-2.51,8.75a12,12,0,0,0,.87,5A3.28,3.28,0,0,0,206.54,40a3.08,3.08,0,0,0,1.83.57h4.33a1.79,1.79,0,0,0,1.93-1,1.72,1.72,0,0,0-.1-1.83A20,20,0,0,1,213.28,33a32.46,32.46,0,0,1-.58-6.82,32.24,32.24,0,0,1,.29-5.38c.21-1.51.34-2.36.67-3.85.2-1,.29-2,1.16-2,.68-.1,1.16,1,1.54,2.21,1.66,4.07,2.57,6.37,4.14,10.47,1.64,4.27,2.43,6.72,4.15,11a1.75,1.75,0,0,0,.77,1.34,2,2,0,0,0,1.15.48h5a1.15,1.15,0,0,0,1-.48,1.6,1.6,0,0,0,.28-.86,43.22,43.22,0,0,1-.28-6.83c0-3.68.34-5.74.57-9.41.2-3.07.19-4.81.39-7.88.18-2.82.44-4.39.58-7.21a55.53,55.53,0,0,0,0-5.77A1.47,1.47,0,0,0,233.41.58Z"/><path class="a" d="M337.83.29A1.84,1.84,0,0,0,336.68,0h-4.43c-.68.1-1.45.1-1.83.48s-.2,1.06.09,1.63A31.19,31.19,0,0,1,332.34,8a30.84,30.84,0,0,1,.77,8.07c0,1.42,0,2.23-.09,3.65,0,.67,0,1.54-.68,1.54-.5,0-.67-.29-1-.87-1.57-3.68-2.42-5.77-3.85-9.51-1.26-3.28-2-5.12-3.08-8.46A3.41,3.41,0,0,0,323.39.77a3,3,0,0,0-.78-.48h-7.12a1.37,1.37,0,0,0-1.26,1,1.42,1.42,0,0,0,.1,1.63c1.54,3.08,1.25,3.56,1.25,6.83a25.26,25.26,0,0,1-1.06,7.49c-.81,3.09-1.92,4.62-3.08,7.59-1.25,3.18-2.22,5.1-2.5,8.75a10.22,10.22,0,0,0,.86,5A4.23,4.23,0,0,0,311,39.69a2.92,2.92,0,0,0,1.83.58h4.33a1.77,1.77,0,0,0,1.93-1.06,1.84,1.84,0,0,0-.1-1.83,21.67,21.67,0,0,1-1.25-4.71,32.46,32.46,0,0,1-.58-6.82,33.35,33.35,0,0,1,.29-5.38,38.07,38.07,0,0,1,.68-3.84c.19-1,.29-2,1.15-2,.58-.1,1.16,1,1.45,2.21,1.66,4.08,2.6,6.38,4.24,10.47,1.7,4.24,2.47,6.71,4.14,11a1.86,1.86,0,0,0,.77,1.34,1.54,1.54,0,0,0,1.16.48h5a1.26,1.26,0,0,0,.87-.48,2,2,0,0,0,.39-.86,44.38,44.38,0,0,1-.29-6.82c0-3.68.27-5.75.48-9.42.17-3.08.27-4.81.48-7.88.2-2.82.48-4.39.58-7.21.08-2.25.08-3.52,0-5.77A1.47,1.47,0,0,0,337.83.29Z"/><path class="a" d="M270,16.82a22.34,22.34,0,0,0-4.53-3.08c-1.87-1.12-3.22-1.31-4.91-2.69-.89-.72-1.67-1-2.12-2a3,3,0,0,1-.19-2.3,2.85,2.85,0,0,1,1.34-1.92,3.88,3.88,0,0,1,2.32-.39,9.6,9.6,0,0,1,3.85.87c1.49.53,2.19,1.15,3.66,1.73.71.27,1.1.46,1.83.67a1.48,1.48,0,0,0,1.35-.29,1.66,1.66,0,0,0,.67-1.15l.29-4.33a1.34,1.34,0,0,0-.38-1,1.38,1.38,0,0,0-1.35-.48h-9.44a9,9,0,0,0-4.82,1.44A10,10,0,0,0,252.87,8a9.76,9.76,0,0,0-.67,5.09A9.62,9.62,0,0,0,254,17.78c1.71,2.65,3.78,3.21,6.45,4.9,1.57,1,2.63,1.26,4.24,2.21,1.28.76,2.32.9,3.18,2.11a4.3,4.3,0,0,1,1,2.89,4.4,4.4,0,0,1-1.54,3.46c-1.08,1-2.18,1-3.66,1a11.08,11.08,0,0,1-4.33-.86c-1.72-.51-2.53-1.23-4.24-1.73a14.12,14.12,0,0,0-2.12-.48,1.44,1.44,0,0,0-1.35.48,1.64,1.64,0,0,0-.58,1l-.1,5.38a1.52,1.52,0,0,0,.29,1.25,1.59,1.59,0,0,0,1.16.77,27.7,27.7,0,0,0,7.22.29,18.36,18.36,0,0,0,4.92-.48A11.52,11.52,0,0,0,270,37a12.17,12.17,0,0,0,3.27-4.9,12.79,12.79,0,0,0,1.16-5.19,11.41,11.41,0,0,0-.68-5.09C272.92,19.53,271.8,18.48,270,16.82Z"/><path class="a" d="M303.54,22.58c-.75-2.4-1.31-3.7-2.21-6-.53-1.37-.75-2.18-1.26-3.56A28.83,28.83,0,0,1,299,9.71a15.83,15.83,0,0,1-.67-3.66,6.91,6.91,0,0,1,.1-2.4c.09-.86.28-1.25.28-1.92s-.53-1-1.15-1.35h-9.92a1.73,1.73,0,0,0-1.54.49,1.71,1.71,0,0,0-.68,1.24,19.85,19.85,0,0,1,.1,3.18A18.85,18.85,0,0,1,285.14,9a34.17,34.17,0,0,1-1.73,5.48c-1.19,3.38-2.16,5.17-3.57,8.46a54.86,54.86,0,0,0-2.5,6.24,35.47,35.47,0,0,0-1.54,7.12,3.85,3.85,0,0,0,.67,2.59,2.65,2.65,0,0,0,1.74,1.35l5.78.09a1.5,1.5,0,0,0,1.06-.57,1.57,1.57,0,0,0,.38-1.25,25.16,25.16,0,0,1-.58-3.56,26.78,26.78,0,0,1-.57-5.19,10.09,10.09,0,0,1,.28-2.79,2.5,2.5,0,0,1,2-1.63c2.89-.19,5.68,0,8.57-.19.77,0,1.35.58,1.64,1.63a10.36,10.36,0,0,1,.19,3.65,15.37,15.37,0,0,1-.67,4.52,19.14,19.14,0,0,1-1.26,3.36c-.36.33-.23.78-.09,1.25s.23.62.58.68h7.32a2,2,0,0,0,1.35-.48,2.05,2.05,0,0,0,.77-1.06,18,18,0,0,0,.57-4.61,26.93,26.93,0,0,0-.57-5.29A40.48,40.48,0,0,0,303.54,22.58Zm-8.48-6.34a3.08,3.08,0,0,1-.57.77,1.42,1.42,0,0,1-1.06.38h-3.66a1.42,1.42,0,0,1-1.26-.57,2,2,0,0,1-.48-1,17.51,17.51,0,0,1,.48-2.6,10.16,10.16,0,0,1,1.06-3.07,7.27,7.27,0,0,1,1.54-2,2.43,2.43,0,0,1,.2-.14l.57,0a3.59,3.59,0,0,1,1.35.68c1.43,1.06,1.4,2.47,1.74,4.22A12.35,12.35,0,0,1,295.06,16.24Z"/><path class="a" d="M435.61,22.68c-.69-2.4-1.26-3.7-2.12-6.05-.51-1.4-.81-2.18-1.35-3.56a23.58,23.58,0,0,1-1.06-3.17,15.47,15.47,0,0,1-.67-3.75,12.77,12.77,0,0,1,.1-2.31,8.45,8.45,0,0,0,.28-2c0-.68-.55-1-1.15-1.35h-9.92a1.83,1.83,0,0,0-1.45.48,1.69,1.69,0,0,0-.67,1.25,25.82,25.82,0,0,1,.09,3.17,16.33,16.33,0,0,1-.48,3.75,37.88,37.88,0,0,1-1.64,5.48c-1.17,3.43-2.21,5.22-3.66,8.55a60.45,60.45,0,0,0-2.5,6.15,32.12,32.12,0,0,0-1.54,7.11,3.45,3.45,0,0,0,.67,2.6,3.93,3.93,0,0,0,1.83,1.44h5.78a1.31,1.31,0,0,0,1-.58,1.85,1.85,0,0,0,.38-1.15c-.26-1.42-.4-2.22-.58-3.65a27.54,27.54,0,0,1-.48-5.19,9.07,9.07,0,0,1,.29-2.69,2.33,2.33,0,0,1,2-1.73c2.8-.19,5.59,0,8.48-.19.87,0,1.44.57,1.73,1.63a12.64,12.64,0,0,1,.1,3.75,19.45,19.45,0,0,1-.67,4.42,19.92,19.92,0,0,1-1.16,3.36,1.32,1.32,0,0,0-.19,1.25,1.08,1.08,0,0,0,.67.77H435a2.08,2.08,0,0,0,1.26-.58,4.25,4.25,0,0,0,.77-1.05,18.5,18.5,0,0,0,.57-4.62,26.1,26.1,0,0,0-.57-5.28A47.6,47.6,0,0,0,435.61,22.68Zm-8.38-6.34a1.35,1.35,0,0,1-.58.77,1.72,1.72,0,0,1-1.15.38h-3.66A1.86,1.86,0,0,1,420.1,16a15.15,15.15,0,0,1,.48-2.59,11.7,11.7,0,0,1,1.16-3.08c.47-.84.69-1.76,1.88-2.19a6,6,0,0,1,1.78.75c1.44,1,1.31,2.49,1.64,4.23A11.19,11.19,0,0,1,427.23,16.34Z"/><path class="a" d="M403.63.48h-2.22a2.55,2.55,0,0,0-1,.48,3.43,3.43,0,0,0-.87.87c-.92,1.93-1.34,3.08-2.31,5-.85,1.68-1.36,2.61-2.31,4.23-.29.58-.45,1.11-1.06,1.15a1.15,1.15,0,0,1-1.25-.86c-.93-1.85-1.25-3-2-4.9-.7-1.73-1.11-2.7-1.83-4.42A2.1,2.1,0,0,0,388,.87a3.23,3.23,0,0,0-1-.39h-6.94a1.41,1.41,0,0,0-1.54.67,1.36,1.36,0,0,0-.09,1.45,24,24,0,0,1,1.15,2.59,12.56,12.56,0,0,1,.87,5.19,19.42,19.42,0,0,1-1.06,6.44c-.68,2.28-1.55,3.39-2.5,5.57a54.25,54.25,0,0,0-2.61,6.15,15.16,15.16,0,0,0-1.06,5.29,8,8,0,0,0,.58,3.46,3,3,0,0,0,.87,1.73,3.93,3.93,0,0,0,1.44,1.15l5.5.1a1.6,1.6,0,0,0,1.73-.68,1.83,1.83,0,0,0,.19-1.82,29.61,29.61,0,0,1-1.15-4.42,34,34,0,0,1-.68-7.4,33.94,33.94,0,0,1,.68-7.11c.48-2,.77-4.52,1.83-4.33.57.1,1.06,1.16,1.54,2.31a26.65,26.65,0,0,0,1.64,3.46A20.91,20.91,0,0,0,389,23.06c.38.87.77,1.16,1.35,1.25.28,0,.86-.57,1.25-1.15.86-1.42,1.34-2.23,2.21-3.65s1.4-2.35,2.31-3.84a.92.92,0,0,1,1-.87c.56,0,.67.48.87,1.15a34.4,34.4,0,0,1,.48,7.31,49.35,49.35,0,0,1-1.06,8.55c-.26,1.46-.24,2.31-.58,3.75a21.37,21.37,0,0,1-.77,2.59,1.59,1.59,0,0,0,.09,1.44,1,1,0,0,0,.87.58l5.69.1a1.58,1.58,0,0,0,1.44-.48,1.43,1.43,0,0,0,.48-1.35c-.07-2.77-.12-4.34-.19-7.11s-.17-4.57-.19-7.5c0-4.65,0-7.27.19-11.91.09-2.25.07-3.53.29-5.77.14-1.46.21-2.29.38-3.75A1.62,1.62,0,0,0,404.79,1,1.41,1.41,0,0,0,403.63.48Z"/><path class="a" d="M463.16,1A1.54,1.54,0,0,0,462,.48H439.75A1.81,1.81,0,0,0,438.4,1,1.52,1.52,0,0,0,437.83,2c-.1,1.08-.18,1.7-.2,2.79a22.43,22.43,0,0,0,.1,2.59,1.26,1.26,0,0,0,.58,1.06,1.55,1.55,0,0,0,1.15.29c1.17-.5,1.83-.76,3-1.25s1.63-.55,2.6-1.06c.92-.14,1.64-.29,2.31.58A3.69,3.69,0,0,1,448,9.51a85.41,85.41,0,0,1-.2,9.33,53,53,0,0,1-.86,6.63c-.43,2.22-.7,3.47-1.26,5.67-.64,2.55-1,4-1.73,6.53-.19,1-.35,1.26,0,1.92s.39.68,1.25.87h6.65a1.93,1.93,0,0,0,1.83-.58,2.06,2.06,0,0,0,.67-1.44c.15-2.09.2-3.28.2-5.38,0-3-.16-4.7-.39-7.69-.26-3.57-.72-5.56-1-9.13a63.07,63.07,0,0,1-.1-7,2.47,2.47,0,0,1,1-2.31,2.46,2.46,0,0,1,2.4-.48l4.34,1.92c.58.19,1,.68,1.64.48a1.54,1.54,0,0,0,1.06-1.25l.19-5.28A1.66,1.66,0,0,0,463.16,1Z"/><path class="a" d="M370,7a20.58,20.58,0,0,0-2-4.33,6.87,6.87,0,0,0-2.32-1.63A9.32,9.32,0,0,0,362.4.29h-9.27L353,.19l-.77.1a6.77,6.77,0,0,0-3.28.77,6.25,6.25,0,0,0-3.37,3.75,52,52,0,0,0-1.15,5.09,59.18,59.18,0,0,0-.78,9.42,61.32,61.32,0,0,0-.09,7.3,30.68,30.68,0,0,0,1,7.21,20.78,20.78,0,0,0,1.35,3.65A5.57,5.57,0,0,0,347.56,39a5.38,5.38,0,0,0,2.51,1.34l11-.09a5.6,5.6,0,0,0,2.51-.58A5.67,5.67,0,0,0,366,38a30.2,30.2,0,0,0,2.6-5.48,31.14,31.14,0,0,0,1.74-7c.38-2.23.47-3.51.67-5.77a33.79,33.79,0,0,0,.2-5.86A20.7,20.7,0,0,0,370,7Zm-7.23,23.73a6.78,6.78,0,0,1-2.5,2.5,6.45,6.45,0,0,1-3.08,1.15h-3.76a4.07,4.07,0,0,1-2.12-1.15,5.49,5.49,0,0,1-1.35-2.4c-.7-1.79-.37-3-.38-4.9a31.67,31.67,0,0,1,.58-6.73,33.41,33.41,0,0,1,1.34-5.86c.73-2.15,1-3.55,2.41-5.29a10,10,0,0,1,3.72-3.18l1.68.11a8.77,8.77,0,0,1,2,1.92c1.69,2.08,1.29,4,1.83,6.63a45.73,45.73,0,0,1,.87,5.57,47.72,47.72,0,0,1,.19,5A16.12,16.12,0,0,1,362.78,30.75Z"/></svg>