<svg xmlns="http://www.w3.org/2000/svg" viewBox="0 0 649.14 252.91"><defs><style>.a{fill:#fff100;}</style></defs><rect class="a" x="84.15" y="125.23" width="20.9" height="4.01"/><path class="a" d="M119.5,103.64H119c-4.24,0-6.24.58-6.24,5.87v35.57c0,5.28,2,5.87,6.24,5.87h.46v2.44H98.34V151h.45c4.25,0,6.25-.59,6.25-5.87V132.25H84.15v12.83c0,6.09-13.37,8.22-13.93,8.3l-.52.08V151h.44c4.25,0,6.26-.59,6.26-5.87V109.51c0-5.29-2-5.87-6.26-5.87H69.7V101.2H90.85v2.44H90.4c-4.25,0-6.25.58-6.25,5.87v12.7H105v-12.7c0-6.1,13.37-8.22,13.94-8.31l.52-.07ZM94.6,82.06a45.23,45.23,0,1,0,45.32,45.22A45.27,45.27,0,0,0,94.6,82.06"/><path d="M531.25,64.62h5.3a2.84,2.84,0,0,0,3.14-3.13V4.34a2.84,2.84,0,0,0-3.14-3.12h-5.3a2.85,2.85,0,0,0-3,3.12V61.49a2.85,2.85,0,0,0,3,3.13M472.8,33l25.83,29.92a5.21,5.21,0,0,0,4.18,1.74h7.82c1.66,0,2.53-.87,2.53-2a2.87,2.87,0,0,0-1-2.08L481.94,26.27,509.76,5.13a2.42,2.42,0,0,0,1.14-2,2.12,2.12,0,0,0-2.35-2h-9.4a7.17,7.17,0,0,0-4.43,1.74l-37.66,28.7V4.34a2.84,2.84,0,0,0-3.13-3.12h-5.31a2.85,2.85,0,0,0-3,3.12V61.49a2.86,2.86,0,0,0,3,3.13h5.31a2.84,2.84,0,0,0,3.13-3.13V44.79ZM366.17,18.61,410.44,63a4.78,4.78,0,0,0,4,1.65h5a2.86,2.86,0,0,0,3-3.13V4.34a2.85,2.85,0,0,0-3-3.12h-5.22A2.9,2.9,0,0,0,411,4.34V47.23L366.69,2.87a5,5,0,0,0-4-1.65h-5a2.85,2.85,0,0,0-3,3.12V61.49a2.85,2.85,0,0,0,3,3.13H363a2.84,2.84,0,0,0,3.13-3.13Zm-43.06,46h5.31a2.84,2.84,0,0,0,3.13-3.13V4.34a2.84,2.84,0,0,0-3.13-3.12h-5.31a2.85,2.85,0,0,0-3,3.12V61.49a2.86,2.86,0,0,0,3,3.13M244.75,46.27a3.59,3.59,0,0,0-2.35-1,3.14,3.14,0,0,0-2.17,1l-1.74,1.65a5.51,5.51,0,0,0-2.26,4,5.54,5.54,0,0,0,2,3.74c3.74,3.56,14.87,10.26,31.65,10.26,17.49,0,31.58-7.39,31.58-21.31,0-12.52-11.31-16.09-31.14-17.74-11-1-19.74-2-19.74-7.57s9-8.52,18.09-8.52c9.48,0,17,3.13,21.74,6.87a4.25,4.25,0,0,0,2.44,1,3.7,3.7,0,0,0,2.09-1l1.73-1.56a5.2,5.2,0,0,0,2.18-4,5,5,0,0,0-2.09-3.83C294.15,6.17,284.76,0,268.84,0c-18.61,0-30.18,8.44-30.18,19.92,0,12.78,14.18,16,30.79,17.39,12.79,1.13,20.09,2.09,20.09,8.09,0,6.87-9.83,9.74-19.74,9.74-10.79,0-18.7-3.3-25.05-8.87M172,64.62h54.71A2.9,2.9,0,0,0,230,61.49V57.32a2.91,2.91,0,0,0-3.21-3.14H180.47V4.34a2.83,2.83,0,0,0-3.13-3.12H172a2.86,2.86,0,0,0-3,3.12V61.49a2.86,2.86,0,0,0,3,3.13m-81.58,0h56.18a2.84,2.84,0,0,0,3.13-3.13V57.32a2.85,2.85,0,0,0-3.13-3.14H98.89V37.57H133a2.9,2.9,0,0,0,3.21-3.13V30.27A2.9,2.9,0,0,0,133,27.13H98.89V11.65h47.75c2.09,0,3.13-1,3.13-3.21V4.34a2.84,2.84,0,0,0-3.13-3.12H90.46a2.86,2.86,0,0,0-3,3.12V61.49a2.86,2.86,0,0,0,3,3.13m-34.62,0h5.31a2.83,2.83,0,0,0,3.12-3.13V4.34a2.83,2.83,0,0,0-3.12-3.12H55.84a2.86,2.86,0,0,0-3.05,3.12V27.13H11.48V4.34A2.84,2.84,0,0,0,8.35,1.22H3.05A2.86,2.86,0,0,0,0,4.34V61.49a2.86,2.86,0,0,0,3.05,3.13h5.3a2.84,2.84,0,0,0,3.13-3.13V37.57H52.79V61.49a2.86,2.86,0,0,0,3.05,3.13"/><path d="M540.78,198.72h26.88c2.18,0,3.22-1,3.22-3.21v-4.09a2.91,2.91,0,0,0-3.22-3.13H502.52a2.91,2.91,0,0,0-3.22,3.13v4.09c0,2.17,1,3.21,3.22,3.21H529.3v49.84a2.86,2.86,0,0,0,3.05,3.13h5.22a2.9,2.9,0,0,0,3.21-3.13ZM434.41,233.34a3.57,3.57,0,0,0-2.35-1,3.14,3.14,0,0,0-2.17.95l-1.74,1.65c-1,1-2.26,2.18-2.26,4a5.54,5.54,0,0,0,2,3.74c3.74,3.56,14.87,10.26,31.66,10.26,17.48,0,31.57-7.4,31.57-21.31,0-12.52-11.31-16.09-31.14-17.74-11-1-19.74-2-19.74-7.57s9-8.52,18.09-8.52c9.48,0,17,3.13,21.74,6.87a4.25,4.25,0,0,0,2.44,1,3.61,3.61,0,0,0,2.09-1l1.74-1.56a5.22,5.22,0,0,0,2.17-4,5,5,0,0,0-2.09-3.83c-2.6-2.09-12-8.26-27.92-8.26-18.61,0-30.18,8.44-30.18,19.92,0,12.78,14.18,16,30.8,17.39,12.78,1.13,20.08,2.09,20.08,8.09,0,6.87-9.83,9.74-19.74,9.74-10.78,0-18.7-3.3-25-8.87M353.7,251.69h56.18a2.85,2.85,0,0,0,3.14-3.13v-4.17a2.85,2.85,0,0,0-3.14-3.14H362.13V224.64h34.1a2.91,2.91,0,0,0,3.22-3.13v-4.17a2.91,2.91,0,0,0-3.22-3.13h-34.1V198.72h47.75c2.09,0,3.14-1,3.14-3.21v-4.09a2.85,2.85,0,0,0-3.14-3.13H353.7a2.86,2.86,0,0,0-3.05,3.13v57.14a2.86,2.86,0,0,0,3.05,3.13m-77.5,0h5.31a2.84,2.84,0,0,0,3.13-3.13V224.73H318.3c2.17,0,3.22-1,3.22-3.13v-4.18a2.91,2.91,0,0,0-3.22-3.13H284.64V198.72h47.75c2.09,0,3.13-1,3.13-3.21v-4.09a2.84,2.84,0,0,0-3.13-3.13H276.2a2.85,2.85,0,0,0-3,3.13v57.14a2.85,2.85,0,0,0,3,3.13"/><path d="M370.75,163.87a6.43,6.43,0,0,0,0-12.86,6.17,6.17,0,0,0-6.43,6.33,6.28,6.28,0,0,0,6.43,6.53m-43.86-3.37c-10.12,0-18.35-5.49-18.35-16.24,0-7.8,4.33-13.18,12.66-17C333.64,132.77,344,135,344,146.05c0,9.7-7.7,14.45-17.08,14.45M311.6,105c0-6.33,4.85-12.76,14.23-12.76,7.17,0,13.82,3.8,13.82,14.66,0,7.9-3.59,11.7-10.34,15.18-9.06-3-17.71-8.54-17.71-17.08m20.46,18.34c7.8-1.89,16.23-8.43,16.23-17.92,0-10.12-9.38-16.56-22.77-16.56-13.6,0-22.35,6.65-22.35,17.61,0,9.49,6.53,15.93,15.39,19.51-9.28,1.48-18.87,7.48-18.87,19.09,0,11.8,10,18.76,26.35,18.76,16.77,0,26.15-7.38,26.15-19.4,0-12.86-10.65-17.29-20.13-21.09m-50.82,40.49a6.43,6.43,0,0,0,0-12.86,6.17,6.17,0,0,0-6.43,6.33,6.28,6.28,0,0,0,6.43,6.53m-32.16-9.38V88.9l-24.14,11.39,16.13,2.11v52.09l-18.46,8.22h44.81Zm-36-9.07-8.86,9.91H172.22c26.46-19.61,35.64-33.21,35.64-45.23,0-12.55-9.92-21.2-24.68-21.2-9.8,0-18,3.8-25.2,9.92l7,6.74,15.18-14.12c9.71.52,17.82,7.69,17.82,19.08,0,15.5-15.18,33.84-40,52.19h52.83Z"/><path d="M642.81,161.13a6.43,6.43,0,0,0,0-12.86,6.18,6.18,0,0,0-6.43,6.33,6.28,6.28,0,0,0,6.43,6.53M599,157.76c-10.12,0-18.34-5.48-18.34-16.24,0-7.8,4.32-13.18,12.65-17C605.7,130,616,132.24,616,143.31c0,9.7-7.7,14.45-17.08,14.45M583.66,102.3c0-6.33,4.85-12.76,14.24-12.76,7.17,0,13.81,3.8,13.81,14.66,0,7.91-3.59,11.7-10.34,15.18-9.06-2.95-17.71-8.54-17.71-17.08m20.46,18.34c7.8-1.89,16.23-8.43,16.23-17.92,0-10.12-9.38-16.55-22.77-16.55-13.6,0-22.35,6.64-22.35,17.61,0,9.49,6.53,15.92,15.39,19.5-9.28,1.48-18.87,7.49-18.87,19.08,0,11.81,10,18.77,26.36,18.77,16.76,0,26.15-7.38,26.15-19.4,0-12.86-10.66-17.29-20.14-21.09M553.3,161.13a6.43,6.43,0,0,0,0-12.86,6.18,6.18,0,0,0-6.43,6.33,6.28,6.28,0,0,0,6.43,6.53m-40.17-39.22c10.54-3.06,19-10.23,19-19.19,0-9.49-9.5-16.55-23.41-16.55a39.71,39.71,0,0,0-23,7.38l6.53,7.17,14.55-12c10.12,1,15.71,7.9,15.71,15.6s-5.37,16.45-19.61,16.45h-1.58l-1.06,3.48h3.27c15.5,0,21.51,8.22,21.51,16.13,0,8.75-7.59,18.24-18.24,18.24l-15-13.28L485,152.8c6.43,5.28,15.71,8.33,24.77,8.33,14.87,0,25-8.43,25-19.71,0-9.07-6.64-16.66-21.61-19.51M475,142.68l-8.86,9.91H434.05c26.46-19.61,35.64-33.21,35.64-45.23,0-12.55-9.91-21.19-24.67-21.19-9.81,0-18,3.79-25.2,9.91l7,6.75L442,88.7c9.7.53,17.82,7.7,17.82,19.08,0,15.5-15.18,33.85-40,52.19h52.82ZM415.6,125.29H366.05l-.95,3.47h49.55Z"/><path d="M249,241.3V230.44l-5.09,1.67,2.66,1.46v6.9a4.53,4.53,0,0,1-3.53,1.74c-1.72,0-2.8-1.07-2.8-3.47v-8.3l-5.07,1.67,2.65,1.46v6c0,3,1.72,4.64,4.25,4.64,1.75,0,3.4-1,4.63-3.05v3.18l4.91-1.61Zm-21.52,1.8c-2.08,0-3.4-1.67-3.4-4.93v-4a3.89,3.89,0,0,1,3.15-1.51c2.67,0,4.1,2.42,4.1,5.23,0,2.63-1.27,5.19-3.85,5.19m.94-12.66a4.78,4.78,0,0,0-4.47,2.94v-2.94L219,232.06l2.65,1.45v14l-2.32,1.83h7.33l-2.59-1.83v-5a5,5,0,0,0,3.69,1.48c4.13,0,6.2-3.58,6.2-7,0-3.29-1.91-6.47-5.55-6.47M210.89,243.1c-2.07,0-3.39-1.67-3.39-4.93v-4a3.89,3.89,0,0,1,3.15-1.51c2.67,0,4.1,2.42,4.1,5.23,0,2.63-1.27,5.19-3.86,5.19m1-12.66a4.78,4.78,0,0,0-4.47,2.94v-2.94l-4.94,1.62,2.65,1.45v14l-2.32,1.83h7.33l-2.59-1.83v-5a5,5,0,0,0,3.69,1.48c4.13,0,6.2-3.58,6.2-7,0-3.29-1.92-6.47-5.55-6.47m-17.45,13c-2.78,0-4.21-3.08-4.21-6.61,0-3.2,1.13-5.63,3.64-5.63,2.77,0,4.23,3.07,4.23,6.6,0,3.21-1.13,5.64-3.66,5.64m-.19-13a6.58,6.58,0,0,0-6.82,6.93c0,3.91,2.59,6.87,6.65,6.87a6.6,6.6,0,0,0,6.8-6.93c0-3.91-2.59-6.87-6.63-6.87m-10.88-6.25-5.09,1.67,2.67,1.45v14.8l-2.32,1.83h7.06l-2.32-1.83Zm-13.49,19.75h7.06l-2.32-1.83v-7c0-3-1.72-4.69-4.2-4.69a5.75,5.75,0,0,0-4.91,2.86v-2.86l-4.93,1.62,2.64,1.45v8.6l-2.31,1.83h7.06l-2.32-1.83v-7.92a4.49,4.49,0,0,1,3.5-1.65c1.81,0,3.05,1.13,3.05,3.53v6Zm-17.75-.48c-2.77,0-4.2-3.08-4.2-6.61,0-3.2,1.13-5.63,3.64-5.63,2.77,0,4.23,3.07,4.23,6.6,0,3.21-1.14,5.64-3.67,5.64m-.19-13a6.58,6.58,0,0,0-6.81,6.93c0,3.91,2.58,6.87,6.65,6.87a6.59,6.59,0,0,0,6.79-6.93c0-3.91-2.58-6.87-6.63-6.87M140.61,240l-3.23-4.23,6.28-5h-5.9l2.34,1.75-5,4.29L138,241c1.46,2.1,2.53,3.42,4.39,3.42a4.27,4.27,0,0,0,2.32-.73c-1.78-.69-2.53-1.67-4.07-3.69m-6.17-15.76-5.09,1.67,2.67,1.45v14.8l-2.32,1.83h7.06l-2.32-1.83Zm-8.74,6.25-5.1,1.67,2.67,1.46v8.54L121,243.94H128l-2.31-1.83Zm-1.52-2.34a1.9,1.9,0,0,0,1.86-1.92,1.86,1.86,0,0,0-1.86-1.83,1.8,1.8,0,0,0-1.85,1.83,1.84,1.84,0,0,0,1.85,1.92M117,230.44l-5.09,1.67,2.66,1.46v8.54l-2.32,1.83h7.06L117,242.11Zm-1.51-2.34a1.9,1.9,0,0,0,1.86-1.92,1.86,1.86,0,0,0-1.86-1.83,1.81,1.81,0,0,0-1.86,1.83,1.85,1.85,0,0,0,1.86,1.92m-11.2,15.84,6.41-13.26h-6.23l4.18,2.21-3.66,7.87-4.72-10.32-4.42,1.7,3,1.19,5,10.61ZM91.31,240.2a4.71,4.71,0,0,1-3.48,2,2,2,0,0,1-2.15-2.07c0-2.05,2.24-3,5.63-3.64Zm5,2.56-2.61-1.46v-6.2c0-3.2-2.21-4.66-5.17-4.66a10.26,10.26,0,0,0-5.69,1.91l2.29,2.37,3.12-3.66a3.15,3.15,0,0,1,3,3.37v1.35c-5.39.72-8.43,1.61-8.43,4.71a3.61,3.61,0,0,0,3.72,3.75c1.61,0,3.42-1.19,4.85-3.1v3.23Zm-17.8-18.57-5.09,1.67,2.67,1.45v14.8l-2.32,1.83h7.06l-2.32-1.83ZM65.06,243.94h7.06l-2.32-1.83v-7c0-3-1.72-4.69-4.2-4.69a5.74,5.74,0,0,0-4.77,2.64v-8.89l-5.07,1.67,2.64,1.45v14.8l-2.31,1.83h7.06l-2.32-1.83v-7.92a4.49,4.49,0,0,1,3.5-1.65c1.81,0,3,1.13,3,3.53v6Zm-13-2.64V230.44L47,232.11l2.67,1.46v6.9a4.56,4.56,0,0,1-3.53,1.74c-1.73,0-2.81-1.07-2.81-3.47v-8.3l-5.06,1.67,2.64,1.46v6c0,3,1.72,4.64,4.26,4.64,1.75,0,3.39-1,4.63-3.05v3.18l4.91-1.61Zm-21.33-9.19,2.67,1.46v7.33c0,4-1.32,6.35-4.13,9a8,8,0,0,0,6.55-8.22V230.44Zm3.5-4a1.9,1.9,0,0,0,1.86-1.92,1.86,1.86,0,0,0-1.86-1.83,1.81,1.81,0,0,0-1.86,1.83,1.85,1.85,0,0,0,1.86,1.92m-15.7,8.48L19.63,232h4l-1.08,4.61Zm-3.2,7.36h1.5l1.43-6h4l-1.37,6h1.51l1.4-6h4.74v-1.35H24.11l1.1-4.61h4.23v-1.34H25.53l1.27-5.58H25.29L24,230.63H20l1.29-5.58H19.74l-1.27,5.58h-4.9V232h4.55L17,236.58H12.41v1.35h4.34Z"/><path d="M251.86,214.15a4.78,4.78,0,0,1-2.67.89c-1.48,0-2.5-.89-2.5-2.88v-8.11h4.39l.24-.89h-4.63v-3.4l-5.18,4.29h2.75v8.59a3.74,3.74,0,0,0,3.69,4.07,4.45,4.45,0,0,0,3.91-2.56m-12-9.64a9.61,9.61,0,0,0-5.09-1.59c-2.32,0-4.93,1-4.93,3.8s2.42,3.61,4.52,4.25c1.73.54,3.46,1.22,3.46,2.89,0,1.21-.92,2.23-2.94,2.23l-3.1-3.58L229.55,215a10.25,10.25,0,0,0,5.58,1.75c2.58,0,5-1.24,5-4,0-3-3-3.55-4.91-4.12-1.56-.46-3.12-1.13-3.12-2.78,0-1.45,1.24-2.29,3-2.29l2.8,3.32Zm-18.27-.84c1.67,0,2.81,1.4,2.81,3.69v.46h-6.66c.38-2.21,1.78-4.15,3.85-4.15m.78,10.67c-3.5,0-4.9-2.86-4.74-5.63h9.46c-.13-3.48-1.94-5.79-5.25-5.79-3.72,0-6.44,3.12-6.44,7.19a6.32,6.32,0,0,0,6.25,6.6c3.15,0,5.09-2.4,5.63-5a6.38,6.38,0,0,1-4.91,2.61m-9.83-17.24,2.64,3,2-2.18a8.49,8.49,0,0,0-4.66-1.45c-2.7,0-5.23,1.53-5.23,4.79v1.89h-2.8l-.25.89h3.05v10.53l-2.32,1.84h7.33l-2.59-1.84V204.05h4.5l.24-.89h-4.74v-2c0-2.34,1.24-4,2.86-4.06m-11.59,5.82-5.09,1.67,2.67,1.45v8.54l-2.32,1.84h7.06l-2.32-1.84Zm-1.5-2.35a1.89,1.89,0,0,0,1.85-1.91,1.86,1.86,0,0,0-1.85-1.84,1.8,1.8,0,0,0-1.86,1.84,1.84,1.84,0,0,0,1.86,1.91M191,212.43l-3.23-4.23,6.28-5h-5.9l2.34,1.75-5,4.28,2.91,4.24c1.46,2.1,2.54,3.42,4.4,3.42a4.27,4.27,0,0,0,2.31-.73c-1.78-.7-2.53-1.67-4.07-3.69m-6.17-15.76-5.09,1.67,2.66,1.45v14.79l-2.31,1.84h7.06l-2.32-1.84Zm-13.5,19.75h7.06L176,214.58v-7c0-3-1.72-4.68-4.2-4.68a5.71,5.71,0,0,0-4.9,2.85v-2.85L162,204.53l2.65,1.46v8.59l-2.32,1.84h7.06l-2.32-1.84v-7.92a4.51,4.51,0,0,1,3.5-1.64c1.81,0,3.05,1.13,3.05,3.53v6Zm-13-13.5-5.1,1.67L155.9,206v8.54l-2.31,1.84h7.06l-2.32-1.84Zm-1.51-2.35a1.89,1.89,0,0,0,1.86-1.91,1.86,1.86,0,0,0-1.86-1.84,1.81,1.81,0,0,0-1.86,1.84,1.84,1.84,0,0,0,1.86,1.91m-5.93,3.94a9.61,9.61,0,0,0-5.09-1.59c-2.32,0-4.93,1-4.93,3.8s2.42,3.61,4.53,4.25c1.72.54,3.44,1.22,3.44,2.89,0,1.21-.91,2.23-2.93,2.23l-3.1-3.58L140.6,215a10.23,10.23,0,0,0,5.58,1.75c2.58,0,5-1.24,5-4,0-3-3-3.55-4.91-4.12-1.56-.46-3.13-1.13-3.13-2.78,0-1.45,1.24-2.29,3-2.29l2.8,3.32Zm-14.63-7.84-5.09,1.67,2.67,1.45v14.79l-2.32,1.84h7.06l-2.32-1.84Zm-12.4,7c1.68,0,2.81,1.4,2.81,3.69v.46H120c.38-2.21,1.78-4.15,3.85-4.15m.79,10.67c-3.51,0-4.91-2.86-4.75-5.63h9.46c-.13-3.48-1.94-5.79-5.25-5.79-3.72,0-6.44,3.12-6.44,7.19a6.32,6.32,0,0,0,6.25,6.6,5.82,5.82,0,0,0,5.63-5,6.38,6.38,0,0,1-4.9,2.61m-15.79,2.08h7l-2.31-1.84v-7c0-3-1.73-4.68-4.21-4.68a5.76,5.76,0,0,0-4.77,2.64v-8.89l-5.06,1.67,2.64,1.45v14.79l-2.31,1.84h7l-2.32-1.84v-7.92a4.53,4.53,0,0,1,3.51-1.64c1.81,0,3.05,1.13,3.05,3.53v6Zm-21.53-7.36,1.07-4.61h4l-1.07,4.61Zm-3.21,7.36h1.51l1.43-6h4l-1.38,6h1.51l1.4-6h4.74v-1.34H92.88l1.1-4.61h4.23V203.1H94.3l1.27-5.57H94.06l-1.29,5.57h-4L90,197.53H88.51l-1.26,5.57H82.34v1.35H86.9l-1.08,4.61H81.18v1.34h4.34Z"/></svg>